PathFileType	4	(X/Y/Z)	C:/Users/beibeiliu/ov580/test_trc/User2\sequence.42_training_dense_left.trc
DataRate	CameraRate	NumFrames	NumMarkers	Units	OrigDataRate	OrigDataStartFrame	OrigNumFrames
120	120	16	19	mm	120	1	200
Frame#	Time	ThumbCMC			ThumbMCP			ThumbIP			ThumbTip			IndexMCP			IndexPIP			IndexTip			MiddleMCP			MiddlePIP			MiddleTip			RingMCP			RingPIP			RingTip			PinkyMCP			PinkyPIP			PinkyTip			BackHand1			BackHand2			BackHand3	
		X0	Y0	Z0	X1	Y1	Z1	X2	Y2	Z2	X3	Y3	Z3	X4	Y4	Z4	X5	Y5	Z5	X6	Y6	Z6	X7	Y7	Z7	X8	Y8	Z8	X9	Y9	Z9	X10	Y10	Z10	X11	Y11	Z11	X12	Y12	Z12	X13	Y13	Z13	X14	Y14	Z14	X15	Y15	Z15	X16	Y16	Z16	X17	Y17	Z17	X18	Y18	Z18	
0	0	-174.963	34.3721	16.1539	-146.514	31.7434	-4.70535	-122.516	31.6817	-32.4452	-128.177	21.2521	-66.0675	-194.961	63.926	-62.9348	-176.283	60.1367	-89.9858	-154.114	28.1485	-93.1522	-221.382	60.4109	-69.3713	-212.175	65.2596	-105.49	-187.868	45.0412	-127.153	-235.014	43.5088	-70.2979	-229.685	49.1972	-98.6257	-204.311	35.3133	-119.022	-244.582	13.4575	-64.5362	-239.467	20.8895	-92.6733	-214.069	17.5124	-112.085	-241.131	21.7813	-22.2554	-246.538	11.248	13.5007	-220.533	41.4522	3.88911	
1	0.00833333	-170.613	25.4912	13.0159	-142.129	20.7979	-8.64103	-127.728	15.598	-38.8375	-130.3	8.62131	-69.9838	-183.672	63.94	-61.3154	-164.996	55.5328	-89.541	-151.073	23.5635	-97.6948	-212.045	68.519	-66.0728	-205.814	78.4191	-95.4004	-190.223	70.3932	-130.137	-235.829	48.9331	-64.5587	-229.504	62.9364	-90.835	-211.815	59.4214	-124.657	-243.664	19.7704	-58.315	-247.481	33.735	-91.8912	-238.364	36.7861	-115.091	-239.52	23.0407	-17.9084	-243.674	16.708	13.0572	-212.79	41.4224	4.92892	
2	0.0166667	-168.071	18.7826	13.214	-142.744	10.9759	-9.50605	-125.788	5.85629	-46.3093	-130.282	-0.688023	-69.5044	-170.161	64.3937	-59.7992	-159.087	56.6749	-85.1629	-144.603	30.9805	-99.9716	-208.627	69.2789	-61.2831	-200.146	84.464	-90.553	-189.162	90.38	-121.513	-228.46	54.131	-59.5907	-227.985	70.8744	-90.4096	-221.156	76.9165	-120.083	-245.811	25.5168	-59.1199	-251.004	37.1267	-87.6476	-247.739	45.6121	-111.14	-238.381	27.2162	-16.8242	-240.067	17.9437	13.6299	-210.052	38.8035	8.34774	
3	0.025	-164.061	19.7674	7.79766	-143.785	8.31273	-15.3079	-127.863	1.25365	-46.8689	-126.643	-5.81822	-71.0371	-171.918	64.288	-60.0928	-152.705	59.487	-85.6768	-147.321	40.4853	-105.491	-206.524	69.2631	-59.2619	-201.014	87.7492	-89.6014	-196.094	99.5986	-117.209	-228.928	55.4224	-63.2787	-231.442	69.1943	-89.9346	-227.416	79.9237	-113.102	-241.64	24.2548	-61.8182	-247.842	33.8041	-89.9801	-252.438	40.6635	-113.046	-236.16	28.5278	-19.6838	-243.145	16.6398	11.1673	-208.323	40.4818	5.73134	
4	0.0333333	-170.154	18.2389	8.88903	-144.168	9.3575	-18.389	-124.993	1.45383	-45.7657	-121.663	-5.33095	-73.1333	-176.029	67.6867	-55.5716	-161.52	68.7917	-81.4466	-145.987	57.5978	-105.782	-209.376	74.5972	-61.4701	-205.155	91.6154	-88.1126	-204.502	105.617	-109.674	-235.355	48.8136	-67.8635	-234.012	65.1985	-94.6612	-233.233	74.2425	-121.814	-245.65	16.6222	-70.4107	-241.801	21.9354	-95.6275	-244.038	23.7873	-121.719	-239.975	27.384	-19.6142	-240.181	18.0755	11.1036	-211.344	38.9905	4.4136	
5	0.0416667	-171.899	22.7261	5.25913	-147.689	12.623	-17.8362	-128.443	6.50091	-48.6211	-119.288	-1.32575	-72.1024	-183.346	71.5614	-53.0156	-171.505	76.6413	-84.0655	-156.166	75.8474	-104.792	-219.295	71.9381	-62.0941	-215.817	91.323	-84.3997	-218.282	106.976	-109.761	-237.696	44.2148	-71.8448	-235.865	54.4148	-101.804	-230.599	58.5026	-127.149	-240.162	11.8782	-73.92	-230.771	9.40333	-96.981	-222.782	3.64636	-122.647	-240.222	25.5272	-16.1521	-244.059	13.3111	11.6627	-212.803	40.2742	6.763	
6	0.05	-172.699	26.7152	6.5802	-147.522	16.5026	-17.9376	-130.656	8.36102	-43.3334	-120.21	3.01826	-67.7862	-193.335	75.3879	-57.7817	-181.089	84.7544	-76.0446	-172.107	91.7	-102.406	-225.6	69.0585	-65.1662	-222.427	85.6891	-86.4192	-224.77	103.123	-115.263	-232.914	39.8537	-73.506	-227.366	40.9338	-105.297	-209.483	38.6151	-134.209	-235.293	3.71684	-76.0487	-217.737	-1.88236	-99.4702	-205.587	-6.73678	-118.029	-240.86	22.6834	-16.854	-247.253	9.75352	12.6304	-220.484	39.1974	7.40174	
7	0.0583333	-175.463	28.4455	12.0855	-149.656	19.4446	-13.0125	-126.084	16.4686	-42.7906	-114.034	9.7087	-63.6413	-200.376	76.8965	-54.6534	-190.385	92.0251	-77.172	-188.43	101.967	-98.2403	-225.431	63.5906	-69.8687	-222.526	74.5682	-96.6203	-217.033	87.1401	-129.799	-226.303	31.3219	-78.888	-212.934	21.2857	-107.004	-189.117	11.0359	-122.836	-231.446	-0.614937	-77.8094	-214.726	-5.99417	-93.5821	-198.004	-12.3792	-116.053	-246.449	17.6166	-18.9721	-248.103	9.05343	10.978	-221.664	41.8354	7.26097	
8	0.0666667	-175.507	28.068	9.87678	-150.224	21.0184	-13.9172	-128.598	18.3042	-38.3758	-113.635	14.7902	-63.1656	-202.207	74.0481	-52.4448	-196.402	91.8931	-77.2501	-191.824	108.612	-97.9455	-220.103	56.7226	-71.565	-211.693	59.7954	-108.1	-197.595	58.354	-136.027	-221.034	23.1905	-81.869	-203.583	10.7849	-103.251	-174.243	-2.11052	-113.68	-235.756	-3.72409	-73.331	-219.935	-8.87503	-93.4387	-209.01	-15.817	-117.353	-244.077	19.1191	-20.3051	-248.133	6.69029	13.1489	-221.031	37.9584	6.42423	
9	0.075	-176.819	25.94	12.3621	-145.599	24.329	-8.67263	-121.769	24.9202	-29.7688	-110.68	20.1047	-53.8004	-198.861	72.1526	-54.6547	-196.743	83.7769	-76.674	-193.707	99.8764	-100.296	-209.271	51.1388	-76.3651	-193.021	46.1382	-106.076	-173.775	29.6697	-128.243	-216.813	24.0553	-82.4058	-204.169	9.07673	-103.235	-175.892	-5.56628	-113.833	-236.602	-0.620821	-71.6705	-226.657	-11.2025	-97.8448	-219.636	-15.1923	-119.779	-245.244	17.0907	-20.623	-247.659	8.98376	9.47719	-218.92	37.3913	7.21575	
10	0.0833333	-173.958	27.5245	12.6033	-146.78	25.8752	-5.84593	-121.234	28.8108	-28.7043	-104.916	28.7624	-50.9449	-195.146	69.4137	-58.1344	-186.683	81.3626	-79.8941	-181.649	91.284	-108.756	-204.93	48.8826	-78.1571	-187.428	39.5714	-103.708	-168.598	14.2428	-121.426	-222.954	23.4485	-81.765	-206.87	15.2469	-105.321	-178.726	0.0547051	-119.73	-238.754	1.37875	-71.5648	-233.055	-7.56302	-98.5118	-227.417	-12.739	-121.235	-243.724	18.4939	-19.8693	-245.279	10.0553	8.51681	-218.737	37.1587	6.12115	
11	0.0916667	-175.552	22.8308	14.8024	-144.146	26.7175	-1.60665	-119.239	32.2363	-23.8327	-106.966	31.922	-46.9704	-188.452	69.6171	-57.7534	-176.565	76.9677	-84.0494	-167.147	75.7333	-108.679	-207.907	53.8774	-73.0214	-191.276	45.0647	-106.119	-167.537	17.2976	-119.882	-226.037	31.5807	-77.357	-211.004	28.3421	-104.628	-189.292	11.8285	-122.767	-238.827	6.00435	-76.085	-233.124	-2.05853	-97.0746	-227.152	-11.1458	-124.118	-243.135	21.9169	-19.9742	-246.846	9.34953	10.5678	-213.16	37.7533	6.13803	
12	0.1	-175.794	25.1545	12.1838	-149.118	25.4146	-5.03369	-119.465	33.6419	-23.4583	-104.37	37.0462	-45.2336	-183.217	68.3958	-58.216	-167.014	69.1251	-82.85	-155.02	56.8761	-104.692	-212.076	62.5456	-69.0271	-199.15	58.2214	-104.426	-179.025	34.7592	-120.563	-231.63	38.577	-74.6338	-215.566	40.9413	-104.366	-194.233	25.3205	-122.764	-240.3	6.5432	-71.3916	-231.848	2.07907	-97.5835	-217.271	-3.29172	-124.561	-237.99	23.3616	-19.2654	-243.995	8.47333	13.774	-214.69	34.8514	8.89509	
13	0.108333	-174.065	23.0749	16.9486	-145.421	28.3645	-3.46755	-120.841	36.3072	-25.8147	-106.668	38.1976	-48.4313	-184.503	65.1224	-55.6103	-165.688	61.8297	-79.7954	-149.246	38.8977	-100.453	-217.139	70.177	-63.9521	-204.509	73.6649	-97.731	-185.257	56.2001	-120.093	-233.263	49.5182	-68.3837	-225.931	54.4472	-95.5829	-203.214	45.1139	-119.094	-240.089	19.4391	-71.5033	-232.107	15.1182	-101.429	-216.265	13.0942	-121.935	-238.743	24.3161	-17.5872	-245.061	11.6916	13.4188	-216.378	36.412	13.6617	
14	0.116667	-172.484	22.9204	16.6798	-146.507	21.9449	-3.38049	-121.556	27.0318	-28.5619	-111.103	28.5152	-53.026	-180.215	66.0763	-56.1049	-163.927	57.5882	-78.9168	-150.774	33.0101	-95.968	-214.293	75.1361	-55.5772	-205.102	86.7647	-89.0906	-188.714	76.0156	-123.717	-234.388	58.3213	-60.4546	-229.919	69.985	-89.1032	-212.203	68.1504	-114.213	-247.256	28.5219	-66.7822	-243.793	33.712	-92.3273	-230.517	36.1137	-122.293	-243.296	26.0827	-14.0373	-243.65	13.5427	13.2798	-216.019	38.1755	12.494	
15	0.125	-172.23	18.1857	12.5828	-148.027	14.279	-13.172	-125.029	16.537	-42.4709	-115.926	11.9456	-63.0851	-176.978	66.6611	-52.5867	-158.948	57.991	-77.0968	-151.784	32.0132	-99.8392	-214.594	76.1138	-54.2947	-201.918	93.7952	-86.8687	-192.864	95.2677	-117.038	-235.78	60.555	-56.6951	-231.198	76.8181	-81.8378	-220.128	82.19	-111.677	-249.59	33.0326	-62.8086	-246.505	44.5937	-87.5881	-240.26	54.015	-114.055	-240.468	29.9006	-15.7617	-245.066	14.685	13.8216	-213.971	41.3833	11.988	
